<?xml version="1.0" encoding="UTF-8"?>
<svg version="1.1" xmlns="http://www.w3.org/2000/svg" width="1532" height="502">
<path d="M0 0 C21.12 0 42.24 0 64 0 C74.01419698 22.97374602 83.80134166 46.03678013 93.52832031 69.13330078 C97.11952388 77.65927502 100.71952613 86.18153318 104.3190918 94.70397949 C106.29375035 99.37935206 108.26799599 104.05489896 110.2421875 108.73046875 C110.63367981 109.65763702 111.02517212 110.5848053 111.42852783 111.54006958 C113.82455928 117.21492951 116.21956919 122.89021946 118.61383057 128.56582642 C126.55351221 147.38677207 134.50285394 166.20338902 142.5 185 C148.47924413 199.05370428 154.43646958 213.11654183 160.375 227.1875 C160.96713287 228.59048843 160.96713287 228.59048843 161.57122803 230.02182007 C164.78441836 237.63564853 167.99635814 245.25000442 171.20825195 252.86437988 C174.01325407 259.51399831 176.81874419 266.16341055 179.625 272.8125 C180.01991638 273.74822845 180.41483276 274.68395691 180.82171631 275.64804077 C186.36205406 288.77350977 191.92239979 301.89032556 197.5 315 C205.90226073 334.74879852 214.2509282 354.52005338 222.59277344 374.29443359 C226.16526009 382.7625836 229.7408224 391.22943491 233.31616211 399.69638062 C234.49798107 402.49521868 235.67967605 405.29410905 236.86132812 408.09301758 C240.89331809 417.64325377 244.92632737 427.19305791 248.9609375 436.7421875 C253.64405247 447.82667974 258.32377048 458.91260125 263 470 C263.34903381 470.82737671 263.69806763 471.65475342 264.05767822 472.50720215 C265.98362868 477.07308293 267.90771167 481.63974039 269.82843018 486.20782471 C270.39597891 487.55699793 270.9641238 488.90592055 271.53289795 490.25457764 C272.29836807 492.0700457 273.06137402 493.8865522 273.82421875 495.703125 C274.45976685 497.21374512 274.45976685 497.21374512 275.1081543 498.75488281 C276 501 276 501 276 502 C252.57 502 229.14 502 205 502 C196.61956959 482.37582545 188.25428013 462.75480816 180.1875 443 C174.20490687 428.35005909 168.1569335 413.72878753 162.0625 399.125 C160.35541911 395.03387488 158.64836832 390.9427372 156.94140625 386.8515625 C156.52310043 385.84905457 156.10479462 384.84654663 155.67381287 383.81365967 C151.60063002 374.04874823 147.54857583 364.27513326 143.5 354.5 C137.30921839 339.55517093 131.09824349 324.61884057 124.875 309.6875 C124.45012299 308.66808319 124.02524597 307.64866638 123.5874939 306.59835815 C120.03557419 298.07661291 116.48263146 289.55529433 112.92919922 281.03417969 C111.05664462 276.5437538 109.18437963 272.0532073 107.3125 267.5625 C106.86380051 266.48607742 106.86380051 266.48607742 106.40603638 265.38790894 C101.17201605 252.8296812 95.96057889 240.26214687 90.75308228 227.69290161 C84.43066441 212.43394577 78.08164244 197.1861655 71.72463989 181.94158936 C66.23256364 168.77066352 60.75616706 155.59341401 55.29855347 142.40817261 C46.94905753 122.23684606 38.4968252 102.10967203 30 82 C29.53964355 83.14098145 29.07928711 84.28196289 28.60498047 85.45751953 C16.40705459 115.68401193 4.13777902 145.88095575 -8.17089844 176.0625 C-12.4589804 186.57722889 -16.74497862 197.09280689 -21.03012085 207.60873413 C-21.96596147 209.9053252 -22.90185394 212.20189513 -23.83779907 214.4984436 C-29.26889303 227.8254841 -34.689048 241.15683617 -40.08810425 254.49688721 C-45.31392721 267.40885498 -50.57340837 280.30643876 -55.875 293.1875 C-56.18099121 293.93149048 -56.48698242 294.67548096 -56.80224609 295.4420166 C-57.65628564 297.51772322 -58.51147704 299.59295049 -59.3671875 301.66796875 C-59.85300293 302.84641357 -60.33881836 304.0248584 -60.83935547 305.23901367 C-61.51472406 306.84560672 -62.22060742 308.44121484 -63 310 C-85.44 310 -107.88 310 -131 310 C-130.29566526 306.47832632 -129.72943353 304.03595878 -128.36791992 300.86376953 C-127.86303291 299.6775853 -127.86303291 299.6775853 -127.34794617 298.46743774 C-126.97917862 297.61451141 -126.61041107 296.76158508 -126.23046875 295.8828125 C-125.84264725 294.97518158 -125.45482574 294.06755066 -125.05525208 293.13241577 C-123.77038076 290.12804772 -122.47888314 287.12657409 -121.1875 284.125 C-120.28009306 282.00607595 -119.37320026 279.88693166 -118.46679688 277.76757812 C-116.58191163 273.36144636 -114.69480893 268.95627426 -112.80615234 264.55175781 C-108.92979432 255.50720002 -105.08029197 246.45124669 -101.23086548 237.39520264 C-99.15521128 232.51291484 -97.07749321 227.63150547 -95 222.75 C-94.16665696 220.7916708 -93.33332362 218.83333747 -92.5 216.875 C-47.49999999 111.12499998 -47.49999999 111.12499998 -46.25015259 108.18786621 C-45.4163033 106.22831529 -44.58246135 104.26876125 -43.74862671 102.3092041 C-41.67324746 97.43197426 -39.59774329 92.55479765 -37.52197266 87.67773438 C-33.67728632 78.64421131 -29.83373987 69.61020907 -25.99456787 60.57434082 C-24.21577157 56.38797942 -22.43627805 52.20191455 -20.65673828 48.01586914 C-19.8230602 46.05426432 -18.98970919 44.09252045 -18.15673828 42.13061523 C-17.76599121 41.21030518 -17.37524414 40.28999512 -16.97265625 39.34179688 C-16.63548584 38.54737183 -16.29831543 37.75294678 -15.95092773 36.93444824 C-10.69693232 24.59322171 -5.34889912 12.30246798 0 0 Z " fill="#C29531" transform="translate(1095,0)"/>
<path d="M0 0 C32.01 0 64.02 0 97 0 C102.16669172 16.64822886 107.31611003 33.25755621 112.14324951 50.00006104 C113.83249069 55.85739068 115.53239991 61.71163096 117.23046875 67.56640625 C117.60488432 68.85817302 117.97929424 70.14994144 118.35369873 71.44171143 C123.24010303 88.29550406 128.1708259 105.13636044 133.10023117 121.97761536 C133.8733867 124.61948736 134.64623008 127.26145049 135.41897583 129.90344238 C140.54653041 147.43360438 145.68239275 164.96114021 150.87613297 182.47182465 C151.52883379 184.672543 152.18109021 186.87339259 152.83322144 189.07427979 C155.25156144 197.23595365 155.25156144 197.23595365 157.68011475 205.39459229 C158.75880834 209.0107836 159.83291939 212.62830777 160.90625 216.24609375 C161.22373199 217.30439896 161.54121399 218.36270416 161.86831665 219.45307922 C162.29411514 220.89254158 162.29411514 220.89254158 162.72851562 222.36108398 C162.97589478 223.1907518 163.22327393 224.02041962 163.47814941 224.87522888 C164 227 164 227 164 230 C164.99 230 165.98 230 167 230 C167 154.1 167 78.2 167 0 C186.14 0 205.28 0 225 0 C225 92.4 225 184.8 225 280 C193.98 280 162.96 280 131 280 C129.14675868 275.67577026 127.53571153 271.82784148 126.2043457 267.40039062 C125.88063995 266.33130463 125.5569342 265.26221863 125.22341919 264.16073608 C124.87769867 263.00425568 124.53197815 261.84777527 124.17578125 260.65625 C123.60106825 258.75255672 123.02635427 256.84886375 122.45160675 254.94518089 C121.83310654 252.89377949 121.21660531 250.84178695 120.60067749 248.78961182 C119.28584384 244.4091125 117.96533751 240.03033596 116.64379883 235.65185547 C116.18326267 234.12582719 115.72273728 232.59979566 115.26222229 231.07376099 C114.91491656 229.92288183 114.91491656 229.92288183 114.56059456 228.74875259 C113.84356388 226.37192349 113.12708335 223.99492916 112.41075134 221.6178894 C107.77582771 206.23971348 103.10594549 190.87223296 98.43209743 175.50585079 C95.16874363 164.77659298 91.91032949 154.04583483 88.65150452 143.31520081 C88.14185679 141.63705417 87.63220814 139.95890781 87.12255859 138.28076172 C86.8686394 137.44465205 86.61472021 136.60854239 86.3531065 135.74709606 C84.74558235 130.45407743 83.13736349 125.16127032 81.5287466 119.86858368 C78.79626875 110.87812899 76.06564246 101.88711618 73.33844662 92.89505768 C72.04584853 88.63332022 70.7523091 84.37187403 69.45639038 80.11114502 C68.25311891 76.15491864 67.05242201 72.19792047 65.85376549 68.2402935 C65.41321113 66.78735768 64.97170001 65.33471158 64.52918434 63.8823719 C63.92705609 61.90566251 63.32832416 59.92795632 62.73046875 57.94995117 C62.22616333 56.28883553 62.22616333 56.28883553 61.71166992 54.59416199 C61 52 61 52 61 50 C60.01 50 59.02 50 58 50 C58 125.9 58 201.8 58 280 C38.86 280 19.72 280 0 280 C0 187.6 0 95.2 0 0 Z " fill="#28282C" transform="translate(1307,30)"/>
<path d="M0 0 C34.2478125 -0.0928125 34.2478125 -0.0928125 69.1875 -0.1875 C76.35750732 -0.21481201 83.52751465 -0.24212402 90.91479492 -0.27026367 C99.7701416 -0.28381348 99.7701416 -0.28381348 103.93501282 -0.28633118 C106.801663 -0.28909053 109.66814111 -0.30018729 112.53474426 -0.31672668 C146.89447941 -0.50600707 179.71548256 1.96974015 207 25 C207.72574219 25.61230469 208.45148438 26.22460938 209.19921875 26.85546875 C224.55828287 41.00753372 232.49752066 63.07377547 233.91015625 83.57421875 C233.93980469 84.37472656 233.96945312 85.17523438 234 86 C234.03996094 86.95519531 234.07992187 87.91039063 234.12109375 88.89453125 C234.64873264 114.06600999 228.21088538 138.0883805 210.9921875 156.9921875 C201.950755 166.38206059 190.24160922 174.50308233 178 179 C177.01 179 176.02 179 175 179 C180.79160261 188.37186605 187.03432109 197.42283716 193.27832031 206.49609375 C196.02617527 210.49240691 198.76269678 214.49645563 201.5 218.5 C202.58327494 220.08337329 203.66660837 221.66670656 204.75 223.25 C206.91666667 226.41666667 209.08333333 229.58333333 211.25 232.75 C211.78665283 233.53431396 212.32330566 234.31862793 212.8762207 235.12670898 C213.95557845 236.70428178 215.03484333 238.28191813 216.11401367 239.85961914 C218.88240111 243.90662443 221.65257338 247.95238985 224.42578125 251.99609375 C242 277.62945846 242 277.62945846 242 279 C232.6206545 279.25547573 223.24251521 279.45061333 213.86044312 279.56993389 C209.50320107 279.62722035 205.14834756 279.70483072 200.79248047 279.82983398 C196.58418561 279.94983897 192.3781788 280.01521897 188.16830444 280.04364967 C186.56688406 280.06389276 184.96558178 280.10343042 183.36514282 280.16303062 C170.90580633 280.60833202 170.90580633 280.60833202 166.40884399 276.81329346 C164.31117448 273.97641317 162.64688108 271.11730609 161 268 C159.94385559 266.40019699 158.87089534 264.81132619 157.77880859 263.23583984 C156.73234945 261.64617793 155.68898056 260.05447817 154.6484375 258.4609375 C153.46920628 256.65971991 152.28966938 254.85870242 151.10986328 253.05786133 C150.50209045 252.12954498 149.89431763 251.20122864 149.26812744 250.24478149 C147.34021467 247.32226911 145.38611783 244.4188264 143.42529297 241.51831055 C137.35578809 232.49338952 131.60785253 223.60382157 126.859375 213.80859375 C120.58543285 200.59774136 120.58543285 200.59774136 110 191 C95.10403644 186.1790411 77.99648443 188.94092624 63 190 C63 219.37 63 248.74 63 279 C42.21 279 21.42 279 0 279 C0 186.93 0 94.86 0 0 Z M63 56 C63 82.07 63 108.14 63 135 C74.4675 135.061875 85.935 135.12375 97.75 135.1875 C103.14617676 135.22846802 103.14617676 135.22846802 108.65136719 135.27026367 C111.92568543 135.28030775 111.92568543 135.28030775 115.20001221 135.28633118 C116.63868 135.29088525 118.07733762 135.30132464 119.51593018 135.31672668 C134.34233544 135.46728496 148.96845329 133.82959751 160.3125 123.3125 C167.72809173 115.34261151 171.55013783 104.97835917 171.18359375 94.08984375 C170.2656039 83.64038483 167.02583936 73.87307325 159.1484375 66.59765625 C145.20258114 56.22701034 129.58405431 55.83781463 112.90234375 55.90234375 C111.63362427 55.90335083 110.36490479 55.90435791 109.05773926 55.90539551 C104.35098355 55.91059914 99.6442408 55.92456027 94.9375 55.9375 C79.1284375 55.9684375 79.1284375 55.9684375 63 56 Z " fill="#28282C" transform="translate(701,31)"/>
<path d="M0 0 C64.02 0 128.04 0 194 0 C194 18.48 194 36.96 194 56 C150.11 56 106.22 56 61 56 C61 111.44 61 166.88 61 224 C105.55 224 150.1 224 196 224 C196 242.15 196 260.3 196 279 C131.32 279 66.64 279 0 279 C0 186.93 0 94.86 0 0 Z " fill="#28282C" transform="translate(240,31)"/>
<path d="M0 0 C0.67481415 0.1114183 1.3496283 0.22283661 2.04489136 0.33763123 C7.42941485 1.24534874 12.77901803 2.31026789 18.12890625 3.40234375 C17.58149175 9.31092059 17.03004107 15.21910158 16.47485352 21.12695312 C16.28656934 23.13661509 16.09938675 25.14638058 15.91333008 27.15625 C15.64564208 30.04585271 15.37398932 32.93505944 15.1015625 35.82421875 C15.01922867 36.72227234 14.93689484 37.62032593 14.85206604 38.54559326 C14.77205856 39.38616272 14.69205109 40.22673218 14.60961914 41.09277344 C14.54078018 41.83001648 14.47194122 42.56725952 14.40101624 43.32684326 C14.12788012 45.41017046 13.67911371 47.37615686 13.12890625 49.40234375 C1.77314343 48.73078419 -9.53918043 47.72501061 -20.86508179 46.67340088 C-65.0375701 40.08474888 -65.0375701 40.08474888 -105.43359375 53.77734375 C-111.20120021 59.41305069 -112.05786163 63.93856365 -112.37109375 71.83984375 C-112.20315638 78.39586023 -111.58483926 82.72110683 -106.87109375 87.40234375 C-101.35797439 92.6020858 -94.83292963 95.40885171 -87.8828125 98.15234375 C-86.57565781 98.67145325 -86.57565781 98.67145325 -85.24209595 99.2010498 C-74.28230806 103.49389862 -63.10631196 107.15038425 -51.92919922 110.82958984 C-26.21772866 119.31674135 2.23357391 129.05511931 16.5625 153.88671875 C22.62870707 166.05513411 23.67159851 179.32681432 23.56640625 192.71484375 C23.5636972 193.38633453 23.56098816 194.05782532 23.55819702 194.74966431 C23.40575958 219.76386881 16.20187467 241.478986 -1.87109375 259.40234375 C-21.07663874 277.63418104 -48.23301578 283.05895155 -73.87109375 282.83984375 C-74.63878082 282.83680237 -75.4064679 282.83376099 -76.19741821 282.83062744 C-106.35197467 282.65662985 -137.74277088 278.19463394 -166.87109375 270.40234375 C-166.97573621 264.35139327 -166.66008329 258.62924177 -165.77734375 252.6484375 C-165.66636353 251.86211441 -165.5553833 251.07579132 -165.44104004 250.26564026 C-165.090215 247.78950295 -164.73081855 245.31470209 -164.37109375 242.83984375 C-164.12963675 241.14656578 -163.88874629 239.45320693 -163.6484375 237.75976562 C-163.06252491 233.6396623 -162.4689296 229.52073316 -161.87109375 225.40234375 C-149.94845252 226.03214096 -138.11519339 227.13049052 -126.24609375 228.40234375 C-84.48005007 235.09359861 -84.48005007 235.09359861 -45.87109375 223.40234375 C-38.95271054 216.98392183 -35.3476357 210.04643827 -34.66796875 200.5703125 C-34.54602044 192.81643246 -34.94834068 187.01280343 -39.99609375 180.77734375 C-53.24976627 169.82865775 -69.09616109 165.57328081 -85.29837036 160.73925781 C-113.83285765 152.22261201 -147.0612284 141.90956651 -162.65625 114.234375 C-173.71775608 91.48626544 -173.42679742 64.7975266 -165.27734375 41.12890625 C-161.54338339 31.2339113 -156.3161016 23.872293 -148.87109375 16.40234375 C-148.19433594 15.70238281 -147.51757812 15.00242187 -146.8203125 14.28125 C-110.21979392 -21.07857303 -44.67528023 -7.3929667 0 0 Z " fill="#28282C" transform="translate(638.87109375,32.59765625)"/>
<path d="M0 0 C67.98 0 135.96 0 206 0 C206 16.83 206 33.66 206 51 C181.58 51 157.16 51 132 51 C132 126.57 132 202.14 132 280 C112.86 280 93.72 280 74 280 C74 204.43 74 128.86 74 51 C49.58 51 25.16 51 0 51 C0 34.17 0 17.34 0 0 Z " fill="#28282C" transform="translate(0,30)"/>
<path d="M0 0 C22.11 0 44.22 0 67 0 C67 18.15 67 36.3 67 55 C44.89 55 22.78 55 0 55 C0 36.85 0 18.7 0 0 Z " fill="#C0932F" transform="translate(349,142)"/>
<path d="M0 0 C7.10621241 4.9207169 12.16531294 11.14009603 13.8203125 19.74609375 C13.8203125 21.06609375 13.8203125 22.38609375 13.8203125 23.74609375 C10.1903125 23.74609375 6.5603125 23.74609375 2.8203125 23.74609375 C2.2634375 22.36421875 1.7065625 20.98234375 1.1328125 19.55859375 C-1.36150177 14.0224328 -4.21585967 10.40107491 -9.8671875 7.93359375 C-16.79053956 5.65188639 -23.76560628 5.92702808 -30.4375 8.84765625 C-36.92481336 12.19313175 -40.47806848 17.75822299 -42.8046875 24.578125 C-44.44207428 34.04426732 -44.11689713 44.42384367 -38.9609375 52.703125 C-34.74071813 58.27147001 -29.44320996 60.83439712 -22.6953125 62.27734375 C-15.12610348 63.3116456 -8.53450952 62.16282161 -1.6796875 58.80859375 C3.13555045 55.30578846 3.13555045 55.30578846 2.8203125 44.74609375 C-4.7696875 44.74609375 -12.3596875 44.74609375 -20.1796875 44.74609375 C-20.1796875 41.44609375 -20.1796875 38.14609375 -20.1796875 34.74609375 C-7.3096875 34.74609375 5.5603125 34.74609375 18.8203125 34.74609375 C18.8203125 38.04609375 18.8203125 41.34609375 18.8203125 44.74609375 C16.8403125 44.74609375 14.8603125 44.74609375 12.8203125 44.74609375 C12.913125 45.81988281 13.0059375 46.89367187 13.1015625 48 C13.78117493 59.11903336 13.78117493 59.11903336 11.35546875 63.2265625 C0.99598336 72.5193286 -11.60721129 73.58424982 -24.85058594 72.96386719 C-33.20178509 72.18302131 -40.23781065 67.82697619 -46.203125 62.1328125 C-55.44506586 50.97307759 -56.26370067 38.57538442 -55.1796875 24.74609375 C-53.20394755 14.87868393 -47.67999351 6.7772601 -39.42578125 1.06640625 C-27.45686825 -5.96923305 -12.26510515 -7.05573253 0 0 Z " fill="#28282C" transform="translate(128.1796875,390.25390625)"/>
<path d="M0 0 C38.15789474 0 38.15789474 0 45.875 6.375 C50.15876698 11.66671215 51.48976532 16.19822542 51.375 22.9375 C51.38660156 23.61490234 51.39820313 24.29230469 51.41015625 24.99023438 C51.37599692 30.92826435 50.05209493 35.7325367 46.02734375 40.1796875 C45.33769531 40.73914063 44.64804687 41.29859375 43.9375 41.875 C43.24527344 42.44992187 42.55304688 43.02484375 41.83984375 43.6171875 C40 45 40 45 38 46 C38.39268066 46.50337891 38.78536133 47.00675781 39.18994141 47.52539062 C41.00238814 49.84966848 42.81369914 52.17482907 44.625 54.5 C45.24246094 55.29148437 45.85992187 56.08296875 46.49609375 56.8984375 C48.33616001 59.26146995 50.16902385 61.62991958 52 64 C52.59393555 64.76183594 53.18787109 65.52367187 53.79980469 66.30859375 C54.34797852 67.02144531 54.89615234 67.73429687 55.4609375 68.46875 C55.95126465 69.10232422 56.4415918 69.73589844 56.94677734 70.38867188 C58 72 58 72 58 74 C53.2787796 75.27049453 49.7017317 75.43999594 45 74 C38.6363283 68.49477563 33.98596756 60.71778943 29.51660156 53.65625 C26.43413268 49.04951262 26.43413268 49.04951262 21.3515625 47 C20.12179688 47 18.89203125 47 17.625 47 C15.43875 47 13.2525 47 11 47 C11 55.91 11 64.82 11 74 C7.37 74 3.74 74 0 74 C0 49.58 0 25.16 0 0 Z M11 9 C11 18.57 11 28.14 11 38 C14.9909375 38.0928125 14.9909375 38.0928125 19.0625 38.1875 C19.8862915 38.21481201 20.71008301 38.24212402 21.55883789 38.27026367 C27.82652743 38.34006311 32.46341645 37.13607036 37.375 33 C40.73184382 28.86849992 40.4923707 24.07589432 40 19 C38.24318129 14.83911358 35.67300073 12.57110051 32 10 C29.23434618 9.07811539 27.61716298 8.88214778 24.76953125 8.90234375 C23.68442261 8.90609009 23.68442261 8.90609009 22.57739258 8.90991211 C21.20877075 8.92356812 21.20877075 8.92356812 19.8125 8.9375 C16.904375 8.958125 13.99625 8.97875 11 9 Z " fill="#28282C" transform="translate(220,388)"/>
<path d="M0 0 C4.53976986 3.84448979 7.83918403 8.0669406 9 14 C9.125 17.375 9.125 17.375 9 20 C5.37 20 1.74 20 -2 20 C-2.350625 18.5975 -2.70125 17.195 -3.0625 15.75 C-4.31802958 12.05897553 -4.94163737 11.04883404 -8.0625 8.4375 C-13.72253196 5.8233327 -19.68950334 6.1598194 -25.4375 8.25 C-28.88562913 10.6048199 -30.49312596 12.47937789 -31.8125 16.4375 C-32.04322571 19.59075142 -31.5258886 21.23886824 -30 24 C-26.82400848 26.95017561 -24.18795508 27.53054754 -19.9375 28.0625 C-18.78765625 28.22234375 -17.6378125 28.3821875 -16.453125 28.546875 C-14.29709325 28.82979319 -12.14087338 29.11128583 -9.984375 29.390625 C-2.14482265 30.57312731 3.61055564 33.06779053 8.9375 39.0625 C12.38681632 43.97516264 12.77997757 49.11805151 12 55 C9.85997344 61.94203738 6.52510945 66.0614711 0.37890625 69.84375 C-8.73167935 74.27188356 -20.15099974 74.57160893 -29.99609375 72.3125 C-32.21376055 71.3900736 -34.03959752 70.38255459 -36 69 C-36.65226563 68.55269531 -37.30453125 68.10539062 -37.9765625 67.64453125 C-42.23516996 64.37609384 -44.43739424 61.23932519 -46 56 C-46.1875 52.0625 -46.1875 52.0625 -46 49 C-42.7 49 -39.4 49 -36 49 C-35.70867188 49.68707031 -35.41734375 50.37414062 -35.1171875 51.08203125 C-34.70726562 51.98308594 -34.29734375 52.88414062 -33.875 53.8125 C-33.48054687 54.70582031 -33.08609375 55.59914063 -32.6796875 56.51953125 C-30.48222119 59.76462685 -28.66907741 60.66222475 -25 62 C-21.31985467 62.47157725 -21.31985467 62.47157725 -17.5 62.375 C-16.2315625 62.38273437 -14.963125 62.39046875 -13.65625 62.3984375 C-9.00854487 61.89195681 -5.85736073 60.44195102 -2.18359375 57.58984375 C0.12515049 54.48865924 0.2250838 50.76503813 0 47 C-2.35975711 43.46036434 -5.04745275 42.31751575 -9 41 C-13.12057162 40.27969562 -17.27750504 39.80356765 -21.43164062 39.3203125 C-28.63574003 38.36339062 -35.03439664 36.58268057 -39.9375 30.9375 C-44.03432145 25.10263309 -43.46762719 18.89537552 -43 12 C-40.44631512 4.47334982 -34.81875379 0.47136557 -28 -3 C-18.9555945 -5.90575581 -8.18543715 -4.67366268 0 0 Z " fill="#28282C" transform="translate(1018,390)"/>
<path d="M0 0 C7.48046719 6.14791433 10.42160613 12.94340355 11.75 22.375 C8.12 22.375 4.49 22.375 0.75 22.375 C0.04875 20.828125 -0.6525 19.28125 -1.375 17.6875 C-4.28312054 11.89583458 -7.04033937 8.94250868 -12.9375 6.0625 C-22.21277364 4.13744321 -29.81711646 5.21634678 -37.9375 9.9375 C-44.94368237 17.32239493 -46.61242511 26.09701157 -46.53515625 35.91015625 C-45.95928857 42.90734303 -43.59488045 50.59273855 -38.25 55.375 C-30.74104682 60.681524 -23.27206857 61.64469615 -14.25 60.375 C-8.9511245 58.7964636 -4.6556662 56.72131188 -1.75 51.875 C-0.5429803 49.0586207 0.61201092 46.21997271 1.75 43.375 C5.38 43.375 9.01 43.375 12.75 43.375 C11.41846678 52.82888587 8.48207998 59.636029 0.9375 65.75 C-8.62832114 72.18681423 -19.02697766 72.47753973 -30.25 71.375 C-40.06007267 69.44061947 -46.75488076 64.08200773 -52.5625 56.125 C-58.90601765 45.8578352 -59.64293592 34.00256433 -57.74609375 22.25390625 C-55.20344157 11.77817926 -49.85671297 4.79306431 -41.25 -1.625 C-29.28395901 -8.53765316 -11.3425659 -7.68987518 0 0 Z " fill="#28282C" transform="translate(891.25,391.625)"/>
<path d="M0 0 C3.63 0 7.26 0 11 0 C11 10.56 11 21.12 11 32 C23.87 32 36.74 32 50 32 C50 21.44 50 10.88 50 0 C53.3 0 56.6 0 60 0 C60 24.42 60 48.84 60 74 C56.7 74 53.4 74 50 74 C50 63.44 50 52.88 50 42 C37.13 42 24.26 42 11 42 C11 52.56 11 63.12 11 74 C7.37 74 3.74 74 0 74 C0 49.58 0 25.16 0 0 Z " fill="#28282C" transform="translate(607,388)"/>
<path d="M0 0 C1.58206057 0.00667536 3.16410534 0.0186375 4.74609375 0.03515625 C5.55240234 0.03966797 6.35871094 0.04417969 7.18945312 0.04882812 C9.18753131 0.06065107 11.18557158 0.07858711 13.18359375 0.09765625 C18.34033417 11.93298459 22.73274744 24.06983137 27.24609375 36.16015625 C28.05644899 38.32494154 28.86699447 40.48965562 29.67773438 42.65429688 C30.46240929 44.75123859 31.24692004 46.84824174 32.03125 48.9453125 C32.38864761 49.90083511 32.74604523 50.85635773 33.11427307 51.84083557 C33.79883687 53.67485477 34.48136129 55.50963672 35.16165161 57.34524536 C35.87869859 59.2764779 36.60249552 61.20521129 37.33126831 63.13204956 C37.6981778 64.11384186 38.06508728 65.09563416 38.44311523 66.10717773 C38.77689682 66.99267807 39.11067841 67.87817841 39.45457458 68.79051208 C40.18359375 71.09765625 40.18359375 71.09765625 40.18359375 74.09765625 C36.55359375 74.09765625 32.92359375 74.09765625 29.18359375 74.09765625 C26.54359375 67.16765625 23.90359375 60.23765625 21.18359375 53.09765625 C10.29359375 53.09765625 -0.59640625 53.09765625 -11.81640625 53.09765625 C-14.07824596 59.63354866 -14.07824596 59.63354866 -16.33374023 66.17163086 C-16.61548096 66.98124268 -16.89722168 67.79085449 -17.1875 68.625 C-17.61953735 69.87398071 -17.61953735 69.87398071 -18.06030273 71.14819336 C-18.81640625 73.09765625 -18.81640625 73.09765625 -19.81640625 74.09765625 C-21.50249591 74.16971136 -23.19141284 74.18151693 -24.87890625 74.16015625 C-26.25755859 74.14662109 -26.25755859 74.14662109 -27.6640625 74.1328125 C-28.37433594 74.12121094 -29.08460938 74.10960937 -29.81640625 74.09765625 C-29.22070855 67.68652241 -27.20264783 62.06145231 -24.9921875 56.0390625 C-24.60830368 54.97711166 -24.22441986 53.91516083 -23.8289032 52.82102966 C-22.60187272 49.43174749 -21.36544471 46.04597952 -20.12890625 42.66015625 C-19.31645833 40.41883682 -18.50460369 38.17730223 -17.69335938 35.93554688 C-15.41579225 29.65081331 -13.12149934 23.3723426 -10.81640625 17.09765625 C-10.49444275 16.22067078 -10.17247925 15.3436853 -9.84075928 14.44012451 C-8.99661128 12.14614681 -8.14807141 9.8538702 -7.296875 7.5625 C-7.05487869 6.90592911 -6.81288239 6.24935822 -6.56355286 5.57289124 C-4.52238213 0.11572114 -4.52238213 0.11572114 0 0 Z M3.18359375 10.09765625 C0.16272717 17.03495604 -2.58762012 24.03496247 -5.12890625 31.16015625 C-5.39525879 31.89806396 -5.66161133 32.63597168 -5.93603516 33.39624023 C-7.00070561 36.4193311 -7.81640625 38.86826624 -7.81640625 42.09765625 C0.43359375 42.09765625 8.68359375 42.09765625 17.18359375 42.09765625 C16.36402898 37.99983241 15.35225289 34.58610029 13.8984375 30.703125 C13.22651367 28.90004883 13.22651367 28.90004883 12.54101562 27.06054688 C12.06779029 25.80205251 11.59448196 24.54358935 11.12109375 23.28515625 C10.64353386 22.00729084 10.16631675 20.72929727 9.68945312 19.45117188 C8.52419863 16.3320563 7.35546368 13.2142911 6.18359375 10.09765625 C5.19359375 10.09765625 4.20359375 10.09765625 3.18359375 10.09765625 Z " fill="#28282C" transform="translate(371.81640625,387.90234375)"/>
<path d="M0 0 C32 0 32 0 42 4 C44.41221613 6.41221613 46.20134193 8.22909432 48 11 C48.37382813 11.56203125 48.74765625 12.1240625 49.1328125 12.703125 C51.50444925 18.98475748 50.95352351 28.22924795 49.3125 34.71875 C46.63117859 40.52827973 42.24707075 43.96135396 36.484375 46.625 C31.35283059 48.4853911 26.39412084 48.33143947 21 48.1875 C17.7 48.125625 14.4 48.06375 11 48 C11 56.58 11 65.16 11 74 C7.37 74 3.74 74 0 74 C0 49.58 0 25.16 0 0 Z M11 9 C11 18.9 11 28.8 11 39 C13.495625 39.061875 15.99125 39.12375 18.5625 39.1875 C19.33408447 39.21481201 20.10566895 39.24212402 20.90063477 39.27026367 C27.00853105 39.3426524 31.59879653 38.02206608 36.375 34 C40.07613322 29.44475912 39.55820871 23.57411271 39 18 C36.9148025 13.32915761 34.73623208 11.50813725 30.03491211 9.59326172 C26.3979546 8.53293697 22.81777647 8.68799744 19.0625 8.8125 C16.401875 8.874375 13.74125 8.93625 11 9 Z " fill="#28282C" transform="translate(484,388)"/>
<path d="M0 0 C3.63 0 7.26 0 11 0 C11 24.42 11 48.84 11 74 C7.37 74 3.74 74 0 74 C0 49.58 0 25.16 0 0 Z " fill="#28282C" transform="translate(747,388)"/>
</svg>
